<?xml version="1.0" encoding="UTF-8"?>
<svg id="a" data-name="Layer 1" xmlns="http://www.w3.org/2000/svg" viewBox="0 0 116.62 91.8">
  <path d="m64.04,91.8h-9.57c-.16-.07-.32-.18-.48-.2-2.98-.32-5.98-.52-8.95-.96-5.14-.76-10.06-2.31-14.65-4.76-3.03-1.62-5.74-3.68-8.18-6.14-3.53-3.55-5.83-7.82-7.5-12.45-.33-.92-.74-1.22-1.6-1.51-1.87-.62-3.73-1.32-5.48-2.23-3.2-1.65-5.4-4.29-6.63-7.65C.5,54.57.32,53.11,0,51.71c0-1.21,0-2.43,0-3.64.15-.79.26-1.6.45-2.38.73-3.03,2.12-5.63,4.63-7.63,2.51-2,5.46-2.72,8.5-3.16.85-.12,1.05-.51,1.21-1.18.89-3.76,2.3-7.33,4.05-10.77,1.62-3.2,3.55-6.19,5.91-8.92,2.98-3.45,6.36-6.4,10.39-8.58,3.91-2.11,7.97-3.82,12.42-4.38,3.12-.39,6.24-.8,9.38-1.03,1.72-.12,3.48,0,5.19.21,3.19.4,6.42.7,9.53,1.47,5.06,1.26,9.74,3.48,14.03,6.47,3.81,2.66,7.11,5.88,9.86,9.6,3.69,5,6.31,10.55,7.78,16.61.24.98.74,1.25,1.59,1.37.81.11,1.63.23,2.41.47,3.49,1.06,6.42,2.94,7.88,6.41,2.13,5.05,1.78,10.16-.51,15.06-2.28,4.87-6.49,7.28-11.59,8.39-.28.06-.63.27-.74.51-.99,2.1-1.84,4.27-2.92,6.32-2.49,4.74-6.16,8.41-10.59,11.37-4,2.66-8.36,4.51-13.01,5.62-2.72.65-5.52.99-8.28,1.44-1.17.19-2.34.31-3.51.46ZM41.46,21.4c-4.38-.12-7.54,1.74-10.32,4.34-2.37,2.22-3.32,5.15-3.03,8.27.27,2.92.96,5.83,1.73,8.67.87,3.23,1.27,6.38,0,9.58-.61,1.51-1.18,3.04-1.74,4.58-2.28,6.27-.69,12.29,4.4,16.64,3.06,2.62,6.6,4.31,10.49,5.21,3.31.77,6.65,1.51,10.02,1.89,2.68.31,5.44.16,8.15.03,2.6-.12,5.23-.26,7.77-.77,5.03-1.01,9.75-2.88,13.79-6.18,4.26-3.48,6.85-7.85,6.56-13.46-.11-2.1-.78-4.25-1.58-6.23-1.42-3.52-2.04-7.03-.98-10.75.4-1.42.78-2.84,1.05-4.29.29-1.59.47-3.21.65-4.82.66-5.76-6.82-13.77-13.96-12.26-1.81.38-3.59.94-5.31,1.61-2.29.9-4.47,2.12-6.78,2.94-1.65.59-3.48,1.13-5.17.99-1.75-.14-3.48-1-5.12-1.75-1.79-.82-3.45-1.92-5.21-2.82-1.8-.93-3.69-1.62-5.41-1.43ZM14.36,57.12s.04,0,.07,0c-.17-2.15-.39-4.3-.48-6.45-.13-2.84-.18-5.68-.21-8.53-.01-.82-.29-1.13-1.14-1.14-2.81-.05-5.58,1.62-6.72,4.26-2.11,4.86-.65,11.58,5.84,13.86,3.03,1.07,2.66.62,2.65-1.88,0-.04,0-.08,0-.11Zm87.96-7.07c0,2.8.03,5.6-.02,8.39-.02,1.07.49,1.34,1.4,1.21.33-.05.67-.15.98-.27,4.59-1.68,6.59-4.95,6.81-10.15.18-4.47-3.55-7.78-7.95-7.8-.94,0-1.26.29-1.24,1.23.05,2.46.02,4.91.02,7.37Zm-2.86,12.24l.2-.02v-3.37c-.07,0-.14,0-.2.01v3.37Z" fill="#be8652"/>
  <path d="m41.46,21.4c1.72-.19,3.6.5,5.41,1.43,1.76.9,3.42,2,5.21,2.82,1.64.75,3.38,1.61,5.12,1.75,1.69.13,3.52-.41,5.17-.99,2.32-.82,4.49-2.04,6.78-2.94,1.72-.67,3.51-1.23,5.31-1.61,7.14-1.51,14.62,6.49,13.96,12.26-.18,1.61-.36,3.23-.65,4.82-.27,1.45-.65,2.87-1.05,4.29-1.06,3.72-.44,7.22.98,10.75.8,1.98,1.47,4.12,1.58,6.23.29,5.61-2.31,9.98-6.56,13.46-4.04,3.3-8.75,5.17-13.79,6.18-2.54.51-5.17.65-7.77.77-2.71.13-5.47.27-8.15-.03-3.37-.39-6.71-1.12-10.02-1.89-3.89-.9-7.43-2.6-10.49-5.21-5.09-4.35-6.68-10.37-4.4-16.64.56-1.53,1.13-3.06,1.74-4.58,1.28-3.2.88-6.35,0-9.58-.77-2.84-1.46-5.75-1.73-8.67-.29-3.11.65-6.05,3.03-8.27,2.78-2.6,5.94-4.47,10.32-4.34Zm17.33,51.06c3.76-.15,7.66-.53,11.4-1.82,2.64-.91,5.15-2.09,6.94-4.35,1.48-1.87,1.95-5.15-1.44-6.24-1.75-.56-3.55-.96-5.34-1.38-4.41-1.03-8.93-.82-13.4-.99-2.8-.11-5.63.32-8.43.65-2.7.33-5.37.85-7.81,2.19-2.08,1.14-2.94,2.88-2.15,4.48,1.03,2.06,2.76,3.44,4.75,4.4,4.82,2.33,10.04,2.82,15.48,3.04Zm-9.1-29.94c.12-3.89-1.69-6.36-4.55-6.86-1.95-.34-4.5-.19-5.88,1.98-1.15,1.82-1.54,3.71-1.22,5.82.4,2.61,1.56,4.69,4.06,5.73.83.35,1.94.52,2.79.28,3.38-.93,4.91-3.76,4.8-6.96Zm16.63-.22c.3,1.14.5,2.31.92,3.4.79,2.04,2.39,3.27,4.55,3.22,2.36-.05,4.32-1.38,5.25-3.74.74-1.9.84-3.85.43-5.82-.37-1.76-1.36-3.08-3.03-3.81-1.87-.81-3.69-.65-5.23.66-1.83,1.55-2.87,3.54-2.88,6.09Zm-11.2,6.45c-.05-.09-.11-.17-.16-.26-.56.34-1.26.58-1.63,1.06-.53.69-.28,1.5.25,2.17.33.41.64.86,1.06,1.17,1.57,1.2,3.24,2.37,5.32,1.5,1.11-.47,2.11-1.27,3.06-2.05.7-.57,1.29-1.37.96-2.37-.36-1.1-1.45-1.02-2.33-1.22-.22-.05-.45,0-.68,0-1.94,0-3.89,0-5.83,0Z" fill="#ffcb7c"/>
  <path d="m14.36,57.12s0,.08,0,.11c0,2.5.39,2.94-2.65,1.88-6.49-2.28-7.95-9-5.84-13.86,1.14-2.63,3.91-4.31,6.72-4.26.84.02,1.12.32,1.14,1.14.04,2.84.09,5.69.21,8.53.1,2.15.32,4.3.48,6.45-.02,0-.04,0-.07,0Z" fill="#fecb7d"/>
  <path d="m102.32,50.05c0-2.46.03-4.92-.02-7.37-.02-.95.31-1.24,1.24-1.23,4.39.02,8.13,3.32,7.95,7.8-.21,5.2-2.22,8.47-6.81,10.15-.32.12-.65.22-.98.27-.91.13-1.42-.14-1.4-1.21.05-2.8.02-5.6.02-8.39Z" fill="#ffcb7d"/>
  <path d="m99.46,62.29v-3.37c.07,0,.14,0,.2-.01v3.37l-.2.02Z" fill="#c38f5e"/>
  <path d="m58.79,72.47c-5.43-.23-10.65-.72-15.48-3.04-1.99-.96-3.73-2.34-4.75-4.4-.79-1.6.07-3.34,2.15-4.48,2.44-1.34,5.11-1.87,7.81-2.19,2.8-.34,5.63-.76,8.43-.65,4.47.17,8.99-.04,13.4.99,1.79.42,3.59.82,5.34,1.38,3.39,1.08,2.92,4.36,1.44,6.24-1.79,2.26-4.29,3.44-6.94,4.35-3.75,1.29-7.64,1.67-11.4,1.82Z" fill="#ff5e00"/>
  <path d="m49.69,42.53c.11,3.2-1.42,6.03-4.8,6.96-.85.23-1.95.06-2.79-.28-2.5-1.04-3.66-3.13-4.06-5.73-.32-2.11.07-4,1.22-5.82,1.37-2.18,3.93-2.33,5.88-1.98,2.86.5,4.66,2.97,4.55,6.86Z" fill="#3b3631"/>
  <path d="m66.32,42.31c.02-2.55,1.06-4.55,2.88-6.09,1.54-1.3,3.36-1.47,5.23-.66,1.68.73,2.67,2.05,3.03,3.81.41,1.97.31,3.92-.43,5.82-.92,2.36-2.89,3.69-5.25,3.74-2.17.05-3.76-1.18-4.55-3.22-.42-1.09-.62-2.27-.92-3.4Z" fill="#3b3631"/>
  <path d="m55.12,48.75c1.94,0,3.89,0,5.83,0,.23,0,.47-.04.68,0,.88.2,1.97.12,2.33,1.22.33,1-.26,1.8-.96,2.37-.95.78-1.94,1.58-3.06,2.05-2.08.87-3.75-.31-5.32-1.5-.41-.31-.73-.76-1.06-1.17-.53-.67-.78-1.48-.25-2.17.38-.48,1.08-.72,1.63-1.06.05.09.11.17.16.26Z" fill="#3b3631"/>
</svg>