<?xml version="1.0" encoding="UTF-8"?>
<svg id="a" data-name="Layer 1" xmlns="http://www.w3.org/2000/svg" viewBox="0 0 168.34 84.31">
  <path d="m0,42.66c0-8.32,0-16.65,0-24.97,0-.13,0-.26,0-.4,0-.22.12-.32.33-.32.2,0,.39-.02.59-.02,3.12,0,6.24,0,9.36,0,.09,0,.18,0,.26,0,.46-.02.47-.03.51-.48.01-.13.01-.26.01-.39,0-2.5,0-5.01,0-7.51,0-.56,0-.58.57-.58,2.92,0,5.84,0,8.76,0,.07,0,.13,0,.2,0,.57,0,.58,0,.58-.59,0-2.13,0-4.26,0-6.39,0-1.05-.13-.99.99-.99,3.01,0,6.02,0,9.03,0,9.22,0,18.45,0,27.67-.01.02,0,.04,0,.07,0,.78,0,.8.01.8.8,0,4.88,0,9.75,0,14.63,0,.35.02.7,0,1.05-.02.33.09.49.44.46.24-.02.48,0,.72,0,1.21,0,2.42,0,3.62,0,.62,0,.62,0,.62-.61,0-2.55,0-5.1,0-7.64,0-.04,0-.09,0-.13,0-.57,0-.58.58-.58,2.83,0,5.67,0,8.5,0,.13,0,.26,0,.4,0,.57-.01.58-.01.59-.59.01-2.06.02-4.13.02-6.19,0-.24.02-.48,0-.72-.02-.31.1-.45.41-.44.15,0,.31,0,.46,0,11.93,0,23.85,0,35.78,0,.42,0,.83-.03,1.25-.02.53.02.54.05.54.58,0,1.98,0,3.95,0,5.93,0,3.21.02,6.41.03,9.62,0,.02,0,.04,0,.07q.01.73.78.74c.22,0,.44,0,.66,0,1.45,0,2.9,0,4.35.01.66,0,.66,0,.65-.64-.05-2.57-.05-5.14.01-7.71.01-.56.03-.59.59-.62.53-.02,1.05-.02,1.58-.02,2.37,0,4.74,0,7.12,0,.64,0,.68-.02.68-.66.02-2.22.02-4.43.03-6.65,0-.66,0-.65.64-.65,11.97,0,23.94,0,35.9,0,.4,0,.79,0,1.19-.02.31-.03.45.07.43.4-.01.2,0,.4,0,.59,0,16.03,0,32.06,0,48.1,0,.02,0,.04,0,.07,0,.72,0,.72-.7.73-2.39,0-4.79.01-7.18.02-.07,0-.13,0-.2,0-.56,0-.58,0-.58.59,0,2.61,0,5.23,0,7.84,0,1.26.21,1.14-1.09,1.14-3.01,0-6.02,0-9.03,0-.11,0-.22,0-.33,0-.54.01-.56.03-.56.55,0,.51,0,1.01,0,1.52,0,2.15,0,4.3,0,6.46,0,.34-.09.49-.43.49-.48,0-.97.02-1.45.02-11.64,0-23.28,0-34.92,0-.77,0-1.54.01-2.31,0-.55,0-.59-.06-.62-.6-.05-.88.1-1.75.09-2.63,0-4.41,0-8.83,0-13.24,0-.55-.04-1.1-.06-1.65,0-.28-.1-.46-.42-.47-1.12,0-2.24-.01-3.36-.02-.24,0-.37.1-.36.36,0,.13,0,.26,0,.4,0,2.66,0,5.31,0,7.97,0,.15,0,.31,0,.46.01.24-.09.37-.34.38-.18,0-.35.01-.53.01-2.96,0-5.93,0-8.89,0-.04,0-.09,0-.13,0-.64,0-.65,0-.65.64,0,2.44,0,4.88,0,7.31,0,.22-.02.44,0,.66.03.33-.14.43-.43.41-.13,0-.26,0-.4,0-12.03,0-24.07,0-36.1-.01-.77,0-1.54,0-2.31.02-.34,0-.49-.12-.47-.46,0-.13,0-.26,0-.4,0-5.58,0-11.16,0-16.73,0-1.04.19-1.02-1.04-1.02-.68,0-1.36,0-2.04,0-.64,0-.64,0-.64.66,0,2.57,0,5.14,0,7.71,0,1.44.12,1.2-1.17,1.21-3.1.01-6.19,0-9.29,0-.6,0-.61,0-.61.62,0,2.39,0,4.79,0,7.18,0,.22,0,.44,0,.66-.01.54-.02.55-.54.57-.37.01-.75,0-1.12,0-2.66,0-5.31,0-7.97,0-.15,0-.31,0-.46.02-.47.04-.48.04-.5.5-.02.46-.02.92-.02,1.38-.02,1.34-.43,2.58-.94,3.81-.89,2.15-2.04,4.13-3.59,5.87-1.51,1.7-3.27,3.08-5.52,3.66-2,.51-4.01.49-5.94-.3-1.14-.47-2.1-.26-2.96.57-.15.15-.31.24-.51.27-.58.1-.7.01-.7-.58,0-3.82,0-7.64,0-11.46,0-.5-.01-1.01,0-1.51,0-.41.04-.43.47-.41.52.03.98.22,1.37.58.64.58,1,1.32,1.22,2.14.35,1.27.52,2.58.8,3.86.16.73.34,1.45.67,2.13.73,1.49,2.06,2.21,3.71,2.06,2.06-.18,3.48-1.33,4.59-2.96,1.14-1.68,1.77-3.57,2.23-5.52.23-.96.36-1.94.5-2.92.04-.26.04-.53.05-.79,0-.23-.08-.37-.34-.37-.33,0-.66-.02-.99-.02-6.83,0-13.66,0-20.49,0-.75,0-1.49-.01-2.24.04-.48.03-.54-.04-.55-.51-.02-.68,0-1.36,0-2.04,0-7.77,0-15.55,0-23.32h0Zm110.04.02h0c0,2.2.02,4.39,0,6.59-.07,5.51-.02,11.02-.03,16.54,0,.42.04.83.04,1.25,0,.32.14.42.45.41.53-.02,1.05-.02,1.58-.02,11.42,0,22.84,0,34.26,0,.24,0,.48,0,.72,0,.54-.01.54-.01.54-.56,0-3.25,0-6.5,0-9.75,0-12.67,0-25.34-.01-38.02,0-1.11.22-1.09-1.1-1.09-8.87,0-17.74,0-26.62,0-3.07,0-6.15,0-9.22,0-.61,0-.6,0-.61.61-.02.79.03,1.58.01,2.37-.04,1.56-.04,3.12-.03,4.67,0,2.96.01,5.93.01,8.89,0,2.7,0,5.4,0,8.1Zm-54.4.03s0,0-.01,0c0,8.06,0,16.12,0,24.18,0,.56,0,.56.59.56,12.1,0,24.2,0,36.3,0,.13,0,.26,0,.4,0,.22,0,.33-.09.33-.31,0-.15,0-.31,0-.46.05-3.03,0-6.06,0-9.09,0-12.85,0-25.69.01-38.54q0-1.02-1-1.02c-12.01,0-24.02,0-36.04,0-.11,0-.22,0-.33,0-.16,0-.24.08-.25.24,0,.13,0,.26,0,.4,0,8.02,0,16.03,0,24.05Zm-26.37,24.67c.27.09.52.07.75.07,2.7,0,5.4,0,8.1,0,.09,0,.18,0,.26,0,.29.02.39-.14.38-.4,0-.09,0-.18,0-.26,0-7.47,0-14.93,0-22.4,0-8.54,0-17.08,0-25.63,0-.72,0-.72-.73-.73-.02,0-.04,0-.07,0-11.97,0-23.93,0-35.9,0-.24,0-.48,0-.72,0-.22,0-.32.09-.32.31,0,.33,0,.66,0,.99,0,15.68,0,31.36,0,47.03,0,.24,0,.48,0,.72-.01.25.1.37.35.36.13,0,.26,0,.39,0,7.31,0,14.62,0,21.94,0,.15,0,.31,0,.46,0,.33.02.5-.11.47-.46-.02-.26-.02-.53-.06-.79-.1-.67-.22-1.34-.34-2.01-.35-1.96-1.11-3.79-1.92-5.59-.52-1.13-1.17-2.21-1.78-3.3-.49-.88-.97-1.78-1.55-2.6-.64-.89-1.24-1.8-1.84-2.72-.99-1.5-2.08-2.93-3.04-4.46-1-1.6-2.01-3.19-2.75-4.93-1.04-2.46-1.66-5-1.49-7.68.1-1.58.55-3.06,1.44-4.39,1.02-1.53,2.45-2.55,4.12-3.27,2.01-.86,4.04-.88,6.1-.16.83.29,1.61.71,2.38,1.12,1.38.74,1.84.63,2.74-.67.17-.24.37-.43.64-.55.6-.24.88-.05.9.59.05,1.43-.13,2.85-.15,4.27-.03,2.74,0,5.49,0,8.23,0,.22,0,.44,0,.66,0,.22-.09.3-.31.33-1.08.13-2.35-.6-2.7-1.59-.3-.83-.53-1.67-.68-2.54-.27-1.54-.59-3.06-1.31-4.47-.39-.76-.86-1.44-1.57-1.91-1.45-.96-2.97-.83-4.45-.11-.73.36-1.25.98-1.32,1.85-.05.61-.05,1.23.11,1.83.28,1.11.73,2.17,1.26,3.17.96,1.8,2.08,3.52,3.3,5.15.85,1.14,1.81,2.2,2.64,3.36.28.39.59.76.84,1.18,1.21,2.04,2.29,4.15,3.23,6.33.77,1.8,1.36,3.66,1.85,5.55.22.85.27,1.73.29,2.61.03,1.21.03,2.41.06,3.62.01.55.23,1.07.21,1.63-.03.87.07,1.75-.17,2.62ZM40.48,3.77c-5.73,0-11.46,0-17.19,0-1.08,0-1.08.01-1.05,1.1.02.52.03.54.57.55.81.02,1.62.03,2.44.03,4.39,0,8.78,0,13.17,0,6.5,0,13,0,19.5,0,.73,0,.74,0,.72-.72-.03-1.08.07-.95-.97-.95-5.73,0-11.46,0-17.19,0Zm108.84,0h0c-5.2,0-10.41,0-15.61,0-.7,0-1.41.01-2.11,0-.27,0-.41.07-.39.37.02.31,0,.62,0,.92-.02.26.09.36.34.36.53,0,1.05.04,1.58.04,10.72,0,21.43,0,32.15,0,.53,0,1.05,0,1.58,0,.6-.02.61-.03.61-.64-.01-1.13.2-1.03-1-1.03-5.71,0-11.42,0-17.13,0Zm-54.85,1.66s0-.02,0-.03c5.78,0,11.55,0,17.33,0,.83,0,.9.23.87-.89-.02-.73-.03-.73-.74-.74-.2,0-.4,0-.59,0-11.27,0-22.53,0-33.8,0-.31,0-.61.02-.92.01-.25,0-.36.11-.35.36,0,.13,0,.26,0,.4.02.89-.19.9.88.9,5.78,0,11.55,0,17.33,0Zm14.25,2.7s0,0,0,0c.97,0,1.93,0,2.9,0,1.13,0,1.17-.05,1.04-1.19,0-.04-.01-.09-.01-.13,0-.25-.13-.35-.37-.35-.44,0-.88-.03-1.32-.03-11.06,0-22.12,0-33.19,0-.31,0-.61,0-.92.02-.57.03-.57.03-.58.61q-.02.93.92.93c4.85,0,9.7-.03,14.55,0,4.63.04,9.26-.17,13.89.12,1.03.06,2.06,0,3.09,0Zm-68.31-1.7h0c-5.69,0-11.37,0-17.06,0-1.18,0-1.23.07-1.11,1.21.03.26.15.34.38.34.24,0,.48,0,.72,0,9.46.07,18.92-.17,28.38.13,2.11.07,4.22,0,6.32,0,.57,0,.58,0,.59-.58.02-1.28.02-1.09-1.04-1.09-5.73-.01-11.46,0-17.19,0Zm108.83,0v.02c-5.69,0-11.37,0-17.06,0-.24,0-.48.01-.72,0-.15,0-.26.03-.26.21,0,.35,0,.7,0,1.05,0,.19.12.27.3.27.15,0,.31,0,.46,0,3.23,0,6.45-.03,9.68,0,6.3.06,12.6-.17,18.89.13,1.27.06,2.55,0,3.82,0,.9,0,1.8,0,2.7,0,.27,0,.41-.08.39-.38-.02-.28-.02-.57,0-.86.02-.32-.13-.43-.43-.43-.5,0-1.01-.02-1.51-.02-5.42,0-10.85,0-16.27,0ZM40.47,2.74h0c5.73,0,11.46,0,17.2,0,1.04,0,1.04,0,.98-1.03q-.04-.58-.59-.59c-.07,0-.13,0-.2,0-11.49,0-22.97,0-34.46,0-1.41,0-1.11-.13-1.15,1.21,0,.28.08.42.37.4.11,0,.22,0,.33,0,5.84,0,11.68,0,17.53,0Zm53.98,0h0c5.73,0,11.46,0,17.18,0,1.12,0,1.12,0,1.03-1.13-.03-.44-.06-.47-.51-.5-.11,0-.22,0-.33,0-11.54,0-23.09,0-34.63,0-.2,0-.39,0-.59,0-.21,0-.33.09-.33.31,0,.11,0,.22,0,.33.02,1.01-.19.97.93.97,5.75,0,11.5,0,17.25,0Zm54.95-1.63h0c-4.96,0-9.93,0-14.89,0-.9,0-1.8,0-2.7.01-.59,0-.59,0-.59.57,0,.07,0,.13,0,.2.02.94-.15.85.83.85,11.55,0,23.1,0,34.65.01.84,0,.76.06.76-.8,0-.87.11-.83-.81-.83-5.75,0-11.51,0-17.26,0Zm14.11,47.71h0c.99,0,1.98,0,2.96,0q.99,0,.99-.96c0-.09,0-.18,0-.26-.01-.56-.01-.58-.6-.58-2.22,0-4.44,0-6.65-.01-.07,0-.13,0-.2,0-.22-.01-.32.1-.32.32,0,.29-.02.57-.01.86,0,.62,0,.63.6.63,1.08,0,2.15,0,3.23,0Zm.1-23.44h0c-.44-.01-.88-.01-1.31-.01-.44,0-.88,0-1.31,0q-1.4.01-1.29,1.4s0,.04,0,.07c0,.21.1.33.31.33.2,0,.39.02.59.02,1.88,0,3.77.01,5.65,0,1.45,0,1.2.13,1.22-1.22.01-.58,0-.59-.58-.6-1.1,0-2.19,0-3.29,0ZM54.78,13.61h0c.57,0,1.14,0,1.71,0,.57,0,1.14,0,1.71.01.33,0,.49-.12.46-.46-.02-.22,0-.44-.01-.66-.02-.67-.03-.67-.72-.68-.61,0-1.23,0-1.84,0-1.54,0-3.07,0-4.61,0-.57,0-.57,0-.59.58,0,.24-.01.48-.01.72,0,.45.02.48.49.48,1.14,0,2.28,0,3.42,0Zm108.85-4.46h0c-1.16,0-2.32,0-3.48-.01-.33,0-.49.09-.47.44.02.33.01.66,0,.98-.01.25.1.36.35.36.15,0,.31,0,.46,0,1.93,0,3.85.02,5.78,0,1.46-.02,1.16.25,1.19-1.27.01-.47-.01-.48-.48-.49-1.12-.01-2.23,0-3.35,0Zm-54.86,1.76h0c.92,0,1.84.03,2.77,0,1.27-.04,1.13.28,1.12-1.16,0-.58-.02-.59-.58-.59-2.2-.01-4.39-.01-6.59-.02-.11,0-.22,0-.33,0-.22,0-.32.09-.32.31,0,.31,0,.61,0,.92,0,.51.01.52.5.53,1.14,0,2.28,0,3.42,0Zm54.79,22.68h0c-.9,0-1.8,0-2.69,0-1.39,0-1.14-.26-1.18,1.23,0,.04,0,.09,0,.13,0,.15.09.24.25.25.17.01.35.02.53.02,1.97,0,3.94.01,5.92,0,1.35,0,1.06.08,1.09-1.15.01-.46-.01-.48-.48-.48-1.14-.01-2.28,0-3.42,0Zm.07,8.05s0-.02,0-.03c-.94,0-1.88,0-2.82,0q-1.17,0-1.13,1.17c.02.52.02.52.58.52,1.99,0,3.98.01,5.98,0,1.47-.01,1.19.22,1.23-1.25,0-.31-.09-.41-.41-.41-1.14.02-2.28,0-3.41,0Zm-54.9-29.65h0c-1.14,0-2.28,0-3.42-.01-.33,0-.5.08-.46.44.02.22,0,.44,0,.66,0,.48,0,.49.46.52.17.01.35.01.53.01,1.93,0,3.86,0,5.79,0,1.15,0,1.09.12,1.04-1.13-.02-.46-.03-.48-.5-.48-1.14,0-2.28,0-3.42,0Zm54.83,9.67h0c.92,0,1.84.02,2.76,0,1.38-.03,1.08.19,1.14-1.15.02-.33-.09-.45-.44-.46-2.08-.04-4.16-.03-6.24,0-.34,0-.78-.15-1,.1-.24.27-.05.72-.1,1.08-.04.37.15.44.46.44,1.14-.01,2.28,0,3.42,0Zm-.01,8.19h0c.94,0,1.88.01,2.83,0,1.29,0,1.05.08,1.08-1.09.01-.5,0-.51-.5-.53-2.06-.08-4.12-.06-6.18-.04-1.13.01-1.12.03-1.1,1.14.01.5.01.51.51.52,1.12,0,2.23,0,3.35,0Zm.03-17.86h0c-.92,0-1.84,0-2.76,0-1.25,0-1.27.02-1.15,1.27.02.21.09.33.31.33.22,0,.44.01.66.01,1.93,0,3.85,0,5.78,0,1.28,0,1.02.06,1.04-1.05.01-.54,0-.56-.53-.56-1.12,0-2.23,0-3.35,0Zm0,6.95h0c.94,0,1.88,0,2.82,0,1.24,0,1.04.25,1.05-1.05,0-.56,0-.58-.59-.58-2.01,0-4.03-.02-6.04,0-1.24.01-1.13-.28-1.14,1.15,0,.46.01.47.48.47,1.14,0,2.28,0,3.42,0Zm-.02,21.63v-.02c.46,0,.92,0,1.38,0,.46,0,.92.03,1.38,0,.37-.03.87.26,1.08-.14.16-.31.04-.77.05-1.17,0-.23-.13-.3-.34-.3-.13,0-.26,0-.4,0-1.98,0-3.95-.02-5.93,0-1.23.01-1.09-.26-1.11,1.12,0,.5.02.52.52.52,1.12,0,2.24,0,3.36,0Zm-54.89-24.28s0,0,0,0c.97,0,1.93,0,2.9,0,1.18,0,1.26-.09,1.08-1.27,0-.04-.01-.09-.02-.13-.02-.16-.12-.22-.27-.23-.15,0-.31,0-.46,0-2,0-4,0-5.99,0-.33,0-.75-.1-.95.07-.26.21-.1.66-.11,1-.02.54,0,.55.53.56,1.1.01,2.2,0,3.29,0Zm54.95-1.63c-.94,0-1.88,0-2.83,0-1.16,0-1.15,0-1.12,1.17,0,.35.13.48.46.46.15,0,.31,0,.46,0,1.91,0,3.81,0,5.72,0,1.35,0,1.12.17,1.14-1.15,0-.46-.01-.48-.48-.49-1.12-.01-2.24,0-3.35,0Zm-.07,21.61c-.92,0-1.84,0-2.76,0-1.17,0-1.28.13-1.11,1.31.02.18.09.29.27.3.17.01.35.02.52.02,1.95,0,3.9,0,5.84,0,1.36,0,1.12.13,1.14-1.15,0-.45-.01-.47-.49-.47-1.14,0-2.28,0-3.41,0ZM54.71,10.78c.99,0,1.97,0,2.96,0q1.01,0,.98-1.04c-.02-.58-.02-.59-.59-.59-2.24,0-4.48,0-6.71,0-.45,0-.45.01-.47.49,0,.22,0,.44,0,.66,0,.46.01.47.48.48,1.12,0,2.24,0,3.36,0Zm108.8,35.2h0c.97,0,1.93.02,2.9,0,1.25-.01,1.02.1,1.04-1.06.01-.58,0-.59-.58-.59-2.04,0-4.08-.02-6.12,0-1.18.01-1.09-.26-1.07,1.15,0,.48.02.49.54.49,1.1,0,2.2,0,3.29,0Zm.04-23.25h0c-.9,0-1.8-.01-2.7,0-1.4.02-1.14-.25-1.18,1.24,0,.02,0,.04,0,.07,0,.22.11.32.32.32.18,0,.35,0,.53,0,1.95,0,3.9,0,5.85,0,1.27,0,1.06.2,1.08-1.13,0-.46-.01-.48-.49-.48-1.14,0-2.28,0-3.42,0Zm-108.78-6.44h0c.96,0,1.93.02,2.89,0,1.02-.02.98.25.98-.98,0-.65-.01-.66-.66-.66-2.02,0-4.03,0-6.05,0q-1.07,0-1.07,1.08c0,.53,0,.54.56.54,1.12,0,2.24,0,3.35,0Zm108.78,16.24h0c1.14,0,2.28,0,3.42,0,.3,0,.5-.04.48-.43-.07-1.27.32-1.14-1.13-1.16-1.84-.03-3.68,0-5.52,0-1.16,0-1.15-.01-1.13,1.16,0,.37.15.44.47.44,1.14,0,2.28,0,3.42,0Zm-56.7-5.37s0,.03,0,.04c.33,0,.66,0,.99,0,1.2,0,1.22-.03,1.18-1.25,0-.04,0-.09,0-.13,0-.26-.11-.42-.38-.42-1.16,0-2.33,0-3.49-.01-.22,0-.31.12-.31.33,0,.35,0,.7,0,1.05,0,.27.1.4.38.4.55-.01,1.1,0,1.65,0Zm.03,21.66h0c.31,0,.61,0,.92,0q1.24-.02,1.15-1.28c-.04-.51-.03-.52-.53-.53-.39-.01-.79,0-1.18,0-.66,0-1.31.02-1.97,0-.34,0-.47.13-.44.47.02.3.01.61,0,.92-.02.3.09.44.41.43.55-.02,1.09,0,1.64,0Zm0-5.53h0c.37,0,.74,0,1.12,0q1,0,.97-1.01s0-.09,0-.13c-.04-.42-.09-.5-.51-.51-.83-.02-1.66-.04-2.5,0-.35.01-.82-.19-1.05.13-.2.29-.05.73-.08,1.09-.03.31.09.44.41.43.55-.02,1.09,0,1.64,0Zm-54.14-15.25s0-.01,0-.02c-.2,0-.39,0-.59,0-1.58.07-1.24-.27-1.3,1.33-.02.47.02.48.47.5.63.01,1.27.01,1.9,0,1.57-.01,1.32.26,1.34-1.42,0-.28-.1-.4-.38-.4-.48,0-.96,0-1.44,0Zm-.07,18.97h0c-.18-.01-.35-.03-.53,0-.41.04-.92-.18-1.19.12-.26.29-.09.8-.1,1.21-.02.46.02.48.47.49.66,0,1.31.01,1.97,0,1.49-.04,1.26.32,1.27-1.41,0-.28-.1-.4-.38-.39-.5,0-1.01,0-1.51,0Zm54.24-13.42h0c-.31,0-.61,0-.92,0-1.2-.02-1.19-.02-1.17,1.15,0,.35.11.47.45.46.86,0,1.71.03,2.57,0,1.22-.03,1.12.21,1.14-1.19,0-.37-.17-.44-.48-.43-.53.01-1.05,0-1.58,0Zm-2.09-13.51c0,.37,0,.69,0,1.02,0,.55,0,.55.53.55.9,0,1.8-.02,2.7-.04q.9-.02.92-.93c.01-.55-.07-.63-.65-.64-1.14-.02-2.28-.08-3.5.04Zm2.01,20.47c.43,0,.83,0,1.22,0,.93,0,.94,0,.93-.93,0-.09-.01-.17-.02-.26-.01-.29-.14-.43-.45-.43-1.12,0-2.24,0-3.36,0-.21,0-.33.06-.33.29,0,.33,0,.66-.02.99-.01.25.1.35.35.36.57.01,1.14.06,1.67-.02Zm.03-10.7h0c.33,0,.66,0,.98,0,1.16,0,1.21-.07,1.11-1.21-.03-.31-.14-.41-.44-.41-.87,0-1.75-.09-2.62,0-.34.03-.78-.16-.99.11-.22.28-.05.72-.08,1.08-.03.31.09.44.41.43.55-.02,1.09,0,1.64,0Zm0-7.12h0c-.31-.01-.61-.01-.92-.01q-1.16,0-1.13,1.14c.01.46.01.47.48.48.9,0,1.8,0,2.7,0,1.01,0,1.02,0,1-1.02,0-.07-.01-.13,0-.2,0-.27-.13-.4-.4-.39-.57,0-1.14,0-1.71,0Zm.01,13.54c-.31,0-.62,0-.92,0-1.36.03-1.09-.25-1.15,1.21-.01.33.14.42.44.41.88,0,1.76,0,2.63,0,1.15,0,1.17-.03,1.06-1.19,0-.02,0-.04,0-.07.02-.29-.14-.38-.41-.37-.55,0-1.1,0-1.65,0Zm-.06-17.32h0c.37,0,.74,0,1.12,0,1.06,0,1.08-.01.99-1.1-.04-.44-.07-.5-.5-.51-1.07-.01-2.14,0-3.22,0-.34,0-.41.16-.4.44,0,.24,0,.48,0,.72-.02.33.09.48.44.46.52-.02,1.05,0,1.58,0Zm-54.14,14.64s0,0,0-.01c-.46,0-.92.01-1.37,0-.32-.01-.5.08-.48.44.02.26.01.52,0,.79-.02.31.12.43.42.43.72,0,1.44,0,2.16,0,1.42-.02,1.12.08,1.15-1.21,0-.31-.13-.43-.43-.43-.48,0-.96,0-1.44,0Zm54.15,12.38h0c.35,0,.7,0,1.05,0,1.14,0,1.16-.02,1.05-1.18,0-.02,0-.04,0-.07.01-.27-.11-.39-.39-.39-1.12-.01-2.23-.05-3.35,0-.27.01-.4.1-.39.39.02.28.02.57,0,.85-.01.28.09.4.38.4.55,0,1.09,0,1.64,0Zm0-13.45s0,0,0,.01c.39,0,.79.01,1.18,0,1.04-.04.87.16.91-.92.02-.61-.05-.66-.68-.67-.77,0-1.54-.01-2.3,0-1.33,0-1.1-.28-1.14,1.2,0,.29.1.39.38.39.55-.01,1.1,0,1.65,0Zm-54.15,10.78c.24,0,.48,0,.72,0,1.25,0,1.24,0,1.14-1.26-.02-.31-.14-.41-.44-.41-.7.01-1.4-.02-2.1,0-.36.01-.82-.17-1.06.1-.25.28-.08.76-.12,1.14-.03.31.09.44.41.43.48-.01.96,0,1.44,0Zm-.02-16.28h0c.24,0,.48,0,.72,0,1.36.02,1.15.24,1.15-1.24,0-.28-.11-.39-.39-.39-.7,0-1.4-.01-2.1,0-.37,0-.83-.15-1.09.08-.29.26-.09.75-.12,1.13-.03.41,0,.42.44.43.46,0,.92,0,1.38,0Zm0-2.67c.5,0,1.01,0,1.51,0,.28,0,.4-.11.39-.39-.01-.28-.03-.57-.01-.85.02-.3-.11-.38-.38-.38-.72,0-1.44,0-2.16,0-1.44.01-1.1-.22-1.17,1.24-.01.29.12.38.39.38.48,0,.96,0,1.44,0Zm.02,8.18h0c.31,0,.61,0,.92,0q.95,0,.95-.93c0-.6,0-.62-.62-.65-.66-.03-1.32-.01-1.98-.02-1.16,0-1.15,0-1.13,1.15,0,.37.14.46.47.44.46-.02.92,0,1.38,0Zm.09,6.4h0c-.26,0-.52,0-.79,0q-1.16,0-1.15,1.15c0,.47.03.5.54.5.68,0,1.35-.02,2.03-.01,1.32.01,1.15.21,1.14-1.26,0-.28-.13-.38-.4-.38-.46,0-.92,0-1.38,0Zm-.11-1.04s0,0,0,0c.5,0,1.01,0,1.51,0,.26,0,.41-.12.4-.4-.01-.28-.03-.57-.02-.85,0-.3-.15-.37-.41-.37-.98,0-1.97,0-2.95,0-.21,0-.33.07-.33.3,0,.31,0,.61-.02.92-.01.28.11.4.39.4.48,0,.96,0,1.44,0Zm.02,8.09h0c.24,0,.48,0,.72,0,1.38-.06,1.13.27,1.15-1.26,0-.3-.12-.38-.39-.38-.72,0-1.45-.03-2.17,0-.36.01-.83-.16-1.06.12-.22.27-.07.72-.08,1.09-.01.41.03.43.45.44.46,0,.92,0,1.38,0Zm.01-27.03v.02c.35,0,.7,0,1.05,0,.8.02.8.02.81-.76,0-.15,0-.31,0-.46,0-.3-.12-.43-.43-.43-.7,0-1.4-.01-2.11,0-1.36.03-1.1-.24-1.18,1.2-.02.31.09.44.41.43.48-.01.97,0,1.45,0Zm.02,1.11s0,0,0,0c-.24,0-.48,0-.72,0-1.2.02-1.19.02-1.15,1.2.01.32.13.42.43.42.72,0,1.44.01,2.17,0,1.29-.03,1.08.22,1.13-1.17.01-.36-.15-.45-.47-.44-.46.02-.92,0-1.38,0Z"/>
  <path d="m152.63,66.02c-1.8-.02-2.78-1.27-2.72-2.56.08-1.76,1.13-2.66,2.65-2.69,1.71-.04,2.79,1.33,2.77,2.73-.02,1.39-1.26,2.69-2.7,2.53Zm2.17-2.48c0-1.35-.96-2.35-2.22-2.33-1.13.01-2.28,1.15-2.19,2.26.11,1.36.86,2.13,2.23,2.23,1.05.07,2.29-.95,2.18-2.15Z"/>
  <path d="m123.64,58.06c.13-.53.39-.85.81-1.07.35-.18.69-.38,1-.63.32-.27.49-.59.48-1.03-.02-1.05.05-2.11-.02-3.16-.25-4.04-.17-8.08-.08-12.11.08-3.42.03-6.85.09-10.27,0-.18,0-.35,0-.53-.02-.59-.28-.79-.84-.59-.65.22-1.03.71-1.27,1.34-.33.89-.5,1.82-.65,2.75-.14.89-.31,1.77-.54,2.64-.12.47-.27.93-.64,1.28-.13.12-.26.24-.43.3-.3.11-.4.07-.42-.26-.02-.35.01-.7.01-1.05,0-2.81,0-5.62,0-8.43,0-.09,0-.18,0-.26.01-.64.01-.65.66-.65,4.46,0,8.92,0,13.37,0,.11,0,.22,0,.33,0,.21,0,.33.08.35.3,0,.13.02.26.02.39,0,3.03-.01,6.06-.02,9.09,0,.15,0,.31-.01.46-.02.16.07.39-.13.47-.23.09-.43-.07-.57-.23-.31-.35-.5-.78-.62-1.22-.29-1.06-.41-2.15-.55-3.24-.15-1.09-.33-2.17-.91-3.14-.31-.51-.92-.77-1.46-.67-.26.05-.38.17-.38.44,0,.37-.02.75-.02,1.12,0,8.39.01,16.78,0,25.17,0,.66.14,1.15.81,1.4.35.13.64.38.88.68.14.18.24.39.16.61-.09.24-.34.16-.52.16-1.12.01-2.24.01-3.36,0-1.71,0-3.43-.02-5.14-.03-.11,0-.21-.02-.39-.03Z"/>
  <path d="m73.85,46.7c0,2.72,0,5.45,0,8.17,0,.09,0,.18,0,.26,0,.56,0,.54.54.58,1.88.14,2.75-.65,3.57-2.32.46-.95.71-1.98.93-3.01.16-.78.4-1.53.69-2.26.12-.29.28-.55.64-.59.26-.03.42.03.43.33.03.7.09,1.4.11,2.1.06,2.37-.15,4.74-.1,7.11.01.62-.02.63-.62.63-4.22,0-8.43,0-12.65,0-.11,0-.22,0-.33,0-.27-.04-.36-.23-.21-.47.15-.23.37-.38.62-.47.84-.32,1.12-1.01,1.17-1.82.05-.74.03-1.49.03-2.24,0-7.71,0-15.42,0-23.12,0-.2-.02-.4-.01-.59.01-.6-.21-1.06-.77-1.33-.28-.14-.52-.34-.68-.61-.26-.43-.13-.72.36-.79.11-.02.22-.01.33-.01,3.89,0,7.77-.01,11.66,0,1.31,0,1.12-.11,1.12,1.13,0,2.35,0,4.7-.01,7.05,0,.24,0,.48-.02.72-.02.18.06.43-.25.44-.27.01-.54.04-.67-.28-.15-.37-.24-.75-.3-1.14-.15-1-.37-1.98-.63-2.96-.42-1.58-1.5-2.5-2.99-2.95-.47-.14-1-.1-1.5-.06-.31.02-.45.17-.45.51.02.9,0,1.8,0,2.7,0,1.34,0,2.68,0,4.02,0,.6,0,.6.63.61,1.19,0,2.37,0,3.56.02.57,0,.58.02.58.6,0,2.02,0,4.04,0,6.06,0,.19.08.44-.16.52-.24.08-.48-.04-.65-.22-.21-.21-.27-.49-.36-.77-.28-.83-.4-1.71-.69-2.54-.3-.88-.86-1.51-1.68-1.92-.11-.06-.25-.09-.37-.12-.78-.15-.83-.11-.83.67,0,2.79,0,5.58,0,8.37h0Z"/>
  <path d="m151.55,63.44c0-.35,0-.7,0-1.05,0-.28.1-.46.42-.46.44,0,.88-.06,1.31.02.39.08.55.24.56.61.03.7-.05,1.4.1,2.1.02.08-.01.18-.12.2-.14.03-.28.02-.33-.12-.07-.18-.1-.38-.15-.57-.12-.5-.65-.72-1.1-.48-.14.08-.14.21-.15.34-.01.2-.02.39-.04.59-.01.14-.06.26-.24.24-.14-.02-.25-.09-.26-.24-.01-.11,0-.22,0-.33,0-.28,0-.57,0-.85,0,0,.01,0,.02,0Zm1.01-1.17c-.15.02-.34-.05-.44.16-.11.23-.02.6.18.69.28.13.88.05.98-.15.03-.05.03-.13.03-.19,0-.4-.18-.52-.75-.51Z"/>
</svg>